<?xml version="1.0" standalone="no"?>
<!DOCTYPE svg PUBLIC "-//W3C//DTD SVG 20010904//EN"
 "http://www.w3.org/TR/2001/REC-SVG-20010904/DTD/svg10.dtd">
<svg version="1.0" xmlns="http://www.w3.org/2000/svg"
 width="1280.000000pt" height="1280.000000pt" viewBox="0 0 1280.000000 1280.000000"
 preserveAspectRatio="xMidYMid meet">
<metadata>
Created by potrace 1.14, written by Peter Selinger 2001-2017
</metadata>
<g transform="translate(0.000000,1280.000000) scale(0.100000,-0.100000)"
fill="#000000" stroke="none">
<path d="M7076 12723 c-3 -4 -204 -16 -251 -16 -22 0 -74 2 -115 4 -57 2 -84
-1 -112 -15 -20 -10 -42 -15 -48 -11 -17 10 -50 -25 -50 -52 0 -13 -12 -40
-27 -59 -28 -37 -28 -43 8 -131 11 -28 11 -37 -3 -67 -14 -28 -21 -33 -40 -29
-34 9 -99 56 -141 102 -53 59 -90 56 -171 -16 -36 -32 -36 -33 -29 -85 5 -29
8 -69 8 -88 l0 -35 -50 -2 c-27 -1 -53 -2 -57 -2 -12 -1 34 -96 96 -200 31
-52 56 -99 56 -103 0 -4 -27 -8 -60 -8 -46 0 -60 -3 -61 -15 -1 -8 -3 -19 -4
-25 -1 -5 -3 -25 -4 -44 -1 -30 -4 -34 -23 -31 -46 9 -68 43 -152 227 -30 65
-56 96 -106 127 -43 26 -58 26 -89 1 -31 -26 -41 -77 -36 -185 2 -49 5 -99 5
-109 1 -11 -6 -26 -14 -34 -13 -14 -24 -7 -92 61 l-76 77 7 73 c11 111 11 112
-5 112 -8 1 -44 -7 -80 -17 -102 -29 -110 -29 -200 -5 -47 12 -91 22 -97 21
-7 -1 -20 -2 -29 -3 -8 0 -32 -19 -52 -40 -31 -32 -46 -40 -92 -47 -30 -4 -58
-9 -62 -10 -5 -1 -16 -2 -26 -3 -17 -1 -19 -11 -19 -85 l0 -84 -47 -54 c-25
-29 -46 -56 -46 -60 0 -17 -38 -7 -59 15 -18 20 -29 23 -69 20 -101 -8 -136
-22 -196 -77 -47 -43 -73 -57 -142 -80 -78 -25 -92 -34 -165 -104 -72 -69 -79
-80 -79 -115 0 -84 48 -141 128 -152 76 -11 82 -14 82 -45 0 -26 -5 -31 -40
-40 -36 -10 -69 -32 -71 -48 -1 -4 -2 -27 -3 -51 -2 -41 -7 -49 -66 -103 -69
-64 -73 -65 -164 -38 -125 37 -218 34 -275 -11 -28 -22 -35 -22 -176 11 -71
16 -168 20 -212 8 -21 -5 -76 -33 -121 -61 -81 -49 -84 -52 -78 -81 12 -67 17
-84 47 -161 17 -44 33 -108 36 -143 l6 -62 39 -6 c45 -8 57 -19 27 -27 -12 -3
-20 -13 -19 -24 5 -40 1 -44 -22 -32 -13 7 -25 15 -28 19 -6 9 -26 13 -59 11
-21 -1 -23 -5 -18 -30 5 -25 25 -75 45 -113 2 -5 -19 -8 -47 -8 -41 0 -59 -6
-95 -32 -38 -28 -44 -37 -42 -63 5 -41 37 -119 80 -190 20 -33 36 -70 36 -82
0 -13 -18 -39 -45 -64 -52 -49 -70 -94 -61 -156 12 -86 54 -143 223 -296 26
-24 34 -27 52 -18 21 12 36 50 40 105 2 18 51 -38 63 -71 11 -31 19 -36 93
-58 145 -45 190 -51 230 -32 41 19 59 22 50 7 -7 -11 57 -77 123 -127 45 -36
119 -137 133 -183 11 -35 14 -38 47 -36 33 1 36 -1 63 -58 33 -70 32 -83 -10
-151 -16 -28 -33 -65 -36 -84 -8 -46 16 -122 68 -212 74 -129 94 -187 102
-285 l3 -42 -61 -23 c-34 -12 -71 -24 -82 -26 -41 -7 -43 -11 -36 -97 1 -5 29
-6 64 -3 l63 6 15 -72 c14 -71 14 -74 -8 -106 -25 -36 -28 -57 -14 -80 6 -9 4
-28 -6 -53 -14 -36 -14 -57 2 -135 6 -32 5 -33 -29 -33 l-36 0 0 -50 c0 -45 2
-50 23 -50 22 0 65 -24 80 -44 11 -15 6 -156 -6 -184 -14 -29 -43 -35 -91 -19
-54 20 -88 4 -83 -38 6 -42 27 -75 55 -81 12 -4 22 -9 22 -12 0 -4 -30 -37
-67 -74 -63 -64 -67 -70 -66 -111 1 -40 -1 -45 -30 -58 -27 -12 -32 -19 -30
-44 2 -16 5 -70 7 -120 3 -49 5 -93 5 -97 1 -3 24 0 51 7 l50 13 0 -37 0 -38
56 9 c61 9 91 25 145 75 35 33 36 34 58 16 18 -14 23 -29 22 -63 0 -25 -3 -56
-6 -70 -3 -14 -8 -47 -12 -74 l-6 -49 39 7 c123 24 162 -12 118 -108 -25 -54
-25 -55 -62 -49 -20 3 -75 20 -122 38 -120 46 -123 48 -140 51 -8 2 -43 6 -78
9 l-64 5 3 -52 c1 -29 8 -74 15 -99 12 -50 62 -149 75 -149 4 0 9 -7 13 -15 3
-10 -8 -6 -34 11 -35 23 -45 25 -107 20 -37 -3 -68 -5 -68 -6 0 -111 -21 -196
-64 -260 -17 -25 -26 -50 -23 -59 12 -30 63 -101 85 -116 19 -13 20 -18 9 -35
-11 -18 -8 -26 24 -64 43 -51 58 -55 194 -52 110 3 190 29 247 79 31 27 35 35
30 68 -5 41 -42 123 -78 178 l-23 34 45 -26 c24 -14 63 -31 86 -38 40 -11 42
-13 36 -43 -3 -17 -12 -47 -18 -67 -17 -49 -11 -116 13 -143 30 -32 21 -125
-19 -191 -17 -27 -36 -74 -42 -105 -6 -30 -12 -57 -13 -59 -2 -1 -20 -5 -41
-7 -68 -6 -117 -16 -158 -32 -38 -15 -205 -120 -205 -129 0 -2 5 -13 11 -24
13 -25 1 -44 -89 -148 -84 -96 -111 -165 -83 -210 12 -19 -38 -90 -95 -137
l-41 -34 23 -85 c30 -114 48 -228 40 -259 -5 -22 -12 -25 -58 -28 l-51 -3 -3
-38 c-1 -22 -8 -68 -14 -103 -16 -85 -8 -120 40 -174 36 -41 40 -50 40 -99 0
-43 6 -63 26 -93 15 -20 33 -68 41 -105 10 -48 22 -77 42 -98 35 -37 34 -73
-3 -147 -14 -29 -26 -61 -26 -72 0 -12 -7 -41 -16 -65 -14 -40 -14 -49 1 -93
15 -47 15 -51 -5 -82 -13 -22 -20 -50 -20 -83 l0 -50 63 -9 63 -10 2 29 c1 16
8 39 14 51 10 18 13 13 23 -49 14 -80 10 -86 -46 -79 l-37 4 -4 -42 c-3 -24
-4 -95 -4 -158 1 -109 3 -118 31 -165 20 -34 30 -64 31 -95 1 -61 44 -135 93
-160 34 -17 37 -22 36 -57 -1 -21 4 -50 11 -64 7 -14 11 -50 10 -82 -4 -63 19
-107 53 -107 15 0 18 -9 18 -53 0 -31 9 -72 21 -99 19 -43 23 -47 66 -53 32
-5 46 -12 47 -24 1 -9 3 -50 5 -93 l3 -76 -25 3 c-15 1 -28 -3 -31 -12 -6 -14
15 -101 28 -118 8 -11 24 -85 21 -97 -1 -4 13 -7 32 -6 42 1 56 -7 56 -36 0
-31 18 -46 57 -46 19 0 34 -5 34 -12 1 -7 3 -20 4 -28 1 -8 3 -20 4 -27 0 -6
10 -9 21 -6 11 3 27 3 35 -1 15 -5 14 -9 -2 -37 -10 -17 -37 -42 -60 -55 -37
-22 -41 -28 -36 -57 8 -53 35 -72 98 -71 30 1 62 7 69 13 8 7 28 13 45 13 30
1 31 3 32 47 l0 46 15 -40 c17 -45 23 -51 75 -59 35 -6 38 -9 41 -44 3 -31 7
-37 28 -40 15 -2 36 6 50 18 61 51 99 93 110 120 22 53 38 38 41 -36 3 -102
25 -142 101 -180 26 -13 50 -29 54 -36 4 -6 8 -41 10 -77 3 -112 31 -153 160
-232 47 -29 96 -66 110 -82 l25 -29 97 27 c111 30 159 56 174 94 18 44 20 123
5 189 -16 71 -18 69 66 108 21 10 39 27 42 39 2 11 9 50 15 87 7 38 20 75 31
87 24 26 24 35 -3 83 l-23 40 37 32 c43 37 61 70 83 156 9 35 26 77 36 92 23
32 19 55 -16 103 -28 37 -25 86 7 147 17 33 22 61 23 118 1 79 4 88 47 139 19
22 35 31 57 31 28 0 31 3 31 33 0 17 9 50 19 72 22 47 71 96 78 78 3 -7 10
-13 16 -13 5 0 8 3 4 6 -7 7 30 110 61 170 11 21 40 62 65 91 48 56 48 55 33
188 -4 28 -9 78 -12 113 l-5 62 41 0 42 0 -7 32 c-4 18 -14 45 -21 60 -19 37
-18 38 16 38 26 0 33 7 32 30 -1 22 -13 84 -18 92 -15 24 -4 81 24 126 16 26
32 58 36 69 5 17 14 21 46 19 l40 -1 0 66 0 66 39 7 c21 3 60 22 87 41 98 69
122 75 281 62 l83 -7 5 27 c11 52 30 77 99 126 l70 50 17 -22 c22 -26 64 -27
105 -2 45 28 69 94 61 171 -4 33 -4 60 0 60 4 0 19 -12 34 -26 l28 -27 43 23
c24 12 54 32 67 43 59 55 157 219 210 354 16 40 19 62 13 90 -6 28 -1 62 20
136 30 108 35 120 48 112 5 -3 12 14 17 37 8 39 13 44 70 72 84 42 100 60 114
125 7 31 17 59 23 63 5 3 37 10 70 13 34 4 70 9 81 11 11 2 40 7 65 10 56 8
87 23 125 64 38 40 68 56 125 65 59 9 111 40 185 110 66 63 121 92 187 101 43
6 44 7 44 43 -1 27 3 36 15 36 9 0 23 5 30 11 8 6 35 23 61 37 54 31 91 80
179 236 46 81 77 124 109 150 114 92 141 135 129 209 -9 60 -2 72 91 136 67
46 77 57 98 111 13 33 28 68 34 79 7 14 4 24 -13 42 -12 13 -31 24 -41 24 -14
0 -18 8 -18 40 0 40 0 40 40 40 l39 0 -5 43 c-9 63 -39 147 -90 250 -68 136
-86 187 -89 242 -2 28 -4 53 -4 57 -1 4 -17 5 -36 3 -28 -4 -35 -1 -36 13 -1
9 -2 33 -2 52 -2 33 -4 35 -42 41 -84 11 -120 67 -91 139 8 21 20 67 25 101 9
53 8 66 -9 99 -11 21 -31 48 -46 59 l-27 21 17 73 c10 40 16 91 14 113 -3 38
-4 39 -43 40 -22 0 -53 4 -68 8 -31 9 -31 9 8 111 12 33 25 68 28 78 4 9 17
17 29 18 13 0 32 3 43 5 11 3 40 7 65 10 25 3 46 7 47 8 7 6 -22 85 -39 109
-16 22 -19 39 -16 71 7 62 -13 103 -61 125 l-40 17 47 57 c44 53 50 57 90 57
l42 0 0 80 c0 86 -13 125 -56 168 -20 20 -31 23 -74 20 l-50 -3 0 42 c0 33 -7
50 -29 75 l-29 33 30 38 c29 36 30 39 18 84 -6 26 -26 80 -45 120 -36 78 -49
124 -47 164 2 24 -3 27 -60 41 -62 14 -63 15 -69 54 -6 46 -19 72 -49 99 -22
20 -39 22 -163 24 l-48 1 6 74 c5 55 2 84 -10 111 -21 51 -19 57 16 78 21 11
52 17 99 17 l67 0 7 -42 c8 -52 33 -126 70 -208 6 -13 36 -51 67 -82 45 -46
62 -58 84 -56 15 2 29 8 32 14 7 19 -27 144 -54 199 -35 69 -88 132 -131 155
l-37 19 74 1 73 0 -7 46 c-3 25 -19 76 -35 113 -16 38 -32 87 -36 111 l-7 42
-54 -4 c-34 -3 -64 -13 -84 -27 -26 -20 -34 -21 -57 -11 -32 14 -90 80 -70 80
7 0 30 -5 52 -9 l38 -9 -5 39 c-12 91 -62 123 -189 123 -73 0 -88 2 -89 15 0
9 -2 61 -3 116 -4 110 -15 163 -46 213 -20 33 -26 67 -12 75 4 3 25 8 47 11
81 13 79 11 77 104 -1 50 -28 110 -85 192 -31 45 -40 71 -47 121 -8 68 -5 77
70 202 17 29 21 45 15 75 -9 50 -31 82 -58 83 -12 0 -30 4 -41 8 -16 6 -14 12
23 55 54 62 71 96 78 157 l6 49 -74 0 -74 0 48 47 c81 78 102 138 73 207 -12
30 -12 33 3 33 47 0 48 1 49 63 1 75 8 98 39 132 21 22 24 33 19 60 -9 48 -29
73 -96 117 -72 48 -107 47 -192 -4 -38 -24 -68 -35 -95 -35 l-38 0 1 -67 c1
-37 -3 -79 -8 -94 -10 -30 -50 -49 -104 -49 -45 0 -112 -28 -125 -51 -18 -34
-24 -20 -25 54 0 67 -3 77 -45 146 -43 72 -50 77 -106 83 -28 3 -28 10 -2 84
41 118 45 179 17 242 -25 55 -44 62 -186 65 l-115 3 -13 37 c-20 56 -45 86
-85 97 -32 9 -37 15 -43 50 -4 28 -14 45 -34 57 -15 10 -30 21 -33 26 -5 7
-216 7 -223 0z m214 -61 c15 -10 26 -29 28 -47 5 -39 26 -62 65 -69 37 -7 64
-48 70 -105 l3 -34 139 -3 c129 -2 141 -4 157 -24 33 -41 33 -86 0 -189 -34
-105 -48 -171 -35 -172 45 -3 97 -10 103 -14 5 -3 23 -31 41 -63 29 -50 33
-66 34 -134 0 -43 5 -82 11 -88 24 -24 94 -15 94 13 0 21 40 38 109 48 105 15
142 52 147 146 1 30 5 57 7 60 4 4 25 9 48 12 3 1 26 15 51 31 61 41 83 41
146 2 64 -39 81 -73 52 -105 -23 -25 -43 -86 -43 -138 0 -35 -1 -36 -39 -33
-35 2 -38 0 -38 -24 0 -15 10 -45 22 -68 28 -54 20 -83 -46 -153 -58 -63 -86
-103 -86 -126 0 -12 15 -15 81 -15 79 0 80 0 73 -22 -4 -13 -20 -41 -36 -63
-67 -93 -78 -112 -84 -143 l-6 -32 46 0 c33 0 52 -6 66 -20 25 -25 25 -47 -1
-85 -39 -58 -88 -162 -79 -171 4 -5 11 -33 14 -62 7 -61 11 -70 74 -165 45
-66 67 -142 51 -168 -6 -11 -23 -15 -67 -18 -7 -1 -24 -12 -37 -26 -31 -30
-33 -86 -5 -122 30 -39 40 -90 45 -235 6 -140 11 -204 20 -218 3 -4 22 -7 42
-6 37 3 38 4 41 44 3 38 5 40 30 37 15 -2 43 -4 63 -4 22 -1 46 -9 60 -22 l24
-20 -40 5 c-22 3 -50 9 -62 12 -20 6 -23 3 -23 -26 0 -57 132 -180 193 -180
10 0 33 11 49 26 41 34 69 29 81 -16 4 -19 19 -58 33 -87 39 -83 43 -80 -119
-80 l-143 -1 -41 -37 c-51 -46 -61 -77 -34 -111 20 -25 21 -53 8 -213 l-2 -25
113 0 c108 -1 115 -2 134 -26 14 -18 19 -36 16 -67 l-3 -43 53 -20 c29 -11 59
-20 67 -20 9 0 16 -10 16 -25 2 -42 18 -89 58 -172 32 -66 47 -123 33 -123
-15 0 -44 -50 -44 -76 0 -13 11 -37 26 -54 21 -26 26 -42 26 -89 0 -32 2 -60
5 -63 3 -3 26 -1 51 4 25 6 55 7 67 4 31 -7 55 -52 58 -111 l3 -50 -36 -5
c-27 -4 -43 -14 -60 -37 -13 -18 -36 -48 -52 -68 -19 -23 -29 -48 -30 -72 -1
-35 1 -37 41 -47 23 -6 45 -14 49 -18 4 -4 6 -33 5 -64 -1 -46 3 -64 23 -95
29 -43 29 -43 -54 -54 -25 -3 -52 -7 -60 -8 -27 -4 -40 -18 -40 -42 0 -13 -13
-60 -30 -105 -40 -109 -39 -126 8 -146 20 -8 50 -16 65 -16 16 -1 31 -7 34
-15 3 -8 -4 -51 -17 -96 l-22 -81 36 -29 c41 -33 46 -48 14 -42 -29 6 -35 -6
-32 -63 l3 -47 -1335 0 c-733 0 -1334 2 -1334 3 0 2 53 72 117 155 126 165
198 269 229 332 18 38 19 72 21 830 2 741 1 792 -16 830 -20 43 -52 76 -91 91
-14 6 -132 10 -275 9 -242 0 -251 -1 -287 -23 -23 -14 -45 -41 -59 -69 l-23
-47 0 -755 c-1 -416 3 -778 7 -806 13 -75 62 -157 214 -350 31 -40 34 -43 68
-90 17 -22 40 -51 53 -65 12 -14 22 -29 22 -35 0 -16 -2432 -14 -2438 3 -2 7
-13 10 -26 6 -14 -3 -31 2 -47 15 -28 24 -20 25 41 7 41 -12 47 -12 71 5 41
29 60 89 58 180 -2 95 -12 116 -68 146 l-44 23 40 0 c40 0 41 1 39 33 -2 17
-8 56 -15 85 -11 45 -11 58 3 92 9 22 16 41 17 43 0 1 -4 15 -10 31 -10 25 -8
31 13 53 26 25 26 32 6 123 -6 25 -11 58 -12 74 -3 33 -36 50 -83 42 -21 -4
-14 2 24 19 29 14 67 26 83 27 l30 2 -6 81 c-7 103 -35 187 -96 295 -91 159
-95 189 -40 280 22 36 40 76 40 89 0 12 -14 53 -30 91 -17 38 -30 75 -30 82 0
10 -12 14 -40 13 -38 -1 -40 1 -65 52 -25 50 -86 119 -187 211 -40 36 -46 47
-43 73 4 31 4 31 -35 25 -22 -3 -56 -14 -75 -23 -31 -15 -41 -15 -88 -4 -110
28 -177 52 -177 64 0 21 -58 84 -92 100 -75 34 -77 34 -74 -21 6 -87 -5 -85
-97 10 -134 137 -150 212 -62 297 25 24 48 55 51 68 9 34 -8 87 -51 157 -19
32 -41 77 -49 100 -14 40 -14 42 12 63 23 18 39 21 97 20 l70 -1 -3 36 c-1 20
-9 49 -17 64 -17 34 -14 39 15 24 12 -6 29 -13 38 -15 9 -2 23 -5 31 -7 11 -2
14 7 12 40 -2 31 1 43 11 41 42 -5 50 0 43 34 -9 40 -31 66 -72 84 -19 7 -33
21 -34 31 -2 42 -12 81 -44 162 -53 137 -54 133 18 178 111 69 143 73 322 36
l134 -27 46 28 c71 41 114 41 279 -4 l79 -21 41 36 c23 20 55 49 72 64 42 36
57 66 59 114 1 23 8 43 16 47 72 33 90 45 95 64 3 11 18 26 34 32 15 6 35 24
44 40 l15 30 -67 6 c-37 4 -80 9 -97 12 -16 3 -44 7 -61 10 -40 7 -63 33 -71
79 -5 34 -2 39 64 103 63 61 79 71 155 96 67 22 94 36 133 73 26 25 63 52 81
60 48 20 119 18 152 -5 15 -11 41 -22 57 -25 27 -6 33 -2 50 26 10 18 39 54
63 80 43 46 44 48 45 120 l2 73 65 10 c71 12 107 30 116 57 11 34 37 38 110
17 94 -28 137 -30 210 -9 l62 18 -5 -63 c-4 -54 -2 -67 20 -101 52 -82 152
-164 200 -164 23 0 58 64 56 102 -6 134 -3 226 9 241 12 14 16 14 47 -4 40
-24 59 -55 106 -169 42 -104 112 -183 173 -194 49 -9 58 0 64 69 l4 55 69 0
c51 0 69 4 69 13 0 32 -37 117 -87 198 -29 48 -53 90 -53 93 0 3 18 6 39 6 22
0 41 5 43 13 6 15 1 165 -6 183 -5 13 57 74 76 74 5 0 36 -24 68 -53 60 -56
133 -97 173 -97 18 0 30 12 50 49 32 58 34 94 7 144 -21 38 -20 46 9 79 9 10
18 30 21 45 3 18 12 27 28 30 13 1 35 9 50 17 15 7 41 12 57 9 72 -9 390 -1
402 11 1 1 42 3 90 4 70 1 93 -2 113 -16z m1701 -3334 c35 -47 73 -126 84
-173 l6 -29 -22 19 c-12 11 -32 37 -45 57 -31 48 -76 168 -64 168 6 0 24 -19
41 -42z m-2472 -2325 c12 -16 60 -77 107 -138 112 -144 210 -291 228 -341 11
-33 13 -174 12 -829 l-1 -790 -23 -41 c-43 -75 -60 -79 -346 -79 -190 -1 -258
2 -278 12 -39 19 -76 62 -90 103 -13 40 -17 1525 -4 1595 10 54 54 130 144
250 42 55 78 102 81 105 4 3 26 32 50 65 25 33 48 62 51 65 4 3 12 15 19 28
15 29 24 28 50 -5z m-2418 -1194 c4 -18 7 -35 6 -35 -1 -1 -32 28 -69 65 l-66
67 61 -31 c53 -27 62 -36 68 -66z"/>
<path d="M4765 10822 c-30 -5 -69 -37 -61 -51 4 -7 16 -9 28 -6 45 15 71 -37
138 -267 42 -146 49 -163 70 -166 40 -6 126 100 194 238 42 86 57 187 34 230
-18 34 -68 39 -87 9 -12 -20 -11 -24 10 -40 21 -15 23 -25 22 -81 0 -44 -8
-78 -24 -113 -29 -60 -67 -123 -90 -148 -17 -18 -18 -18 -27 0 -5 10 -17 52
-27 93 -24 106 -73 251 -94 278 -17 23 -46 31 -86 24z"/>
<path d="M5589 10383 c-4 -132 -75 -282 -180 -376 -69 -63 -181 -121 -254
-133 -27 -4 -53 -9 -57 -10 -5 -1 -19 -2 -33 -3 -21 -1 -25 -6 -25 -32 l0 -31
58 6 c97 11 155 28 226 67 182 99 301 276 322 477 l6 62 -31 0 c-27 0 -31 -4
-32 -27z"/>
<path d="M5889 10378 c-3 -139 -61 -320 -140 -435 -167 -243 -396 -368 -701
-383 -5 0 -8 -14 -8 -31 l0 -32 73 6 c39 4 83 9 97 12 14 3 35 8 47 11 43 9
166 56 212 81 178 99 326 260 405 440 35 82 65 201 72 290 l6 73 -31 0 c-28 0
-31 -3 -32 -32z"/>
<path d="M6190 10388 c-2 -79 -12 -153 -34 -253 -10 -45 -60 -183 -83 -230
-81 -161 -233 -337 -378 -438 -180 -125 -417 -204 -617 -206 -35 -1 -38 -3
-38 -31 0 -29 2 -30 43 -30 124 0 330 51 472 115 74 34 214 124 263 169 20 19
49 45 63 58 24 21 89 93 129 144 73 92 164 277 195 399 26 98 35 155 42 243
l5 82 -31 0 c-25 0 -31 -4 -31 -22z"/>
</g>
</svg>
